<svg width="68" height="84" viewBox="0 0 68 84" fill="none" xmlns="http://www.w3.org/2000/svg">
<path d="M33.9998 42C29.4165 42 25.6665 38.25 25.6665 33.6667C25.6665 29.0834 29.4165 25.3334 33.9998 25.3334C38.5832 25.3334 42.3332 29.0834 42.3332 33.6667C42.3332 38.25 38.5832 42 33.9998 42ZM58.9998 34.5C58.9998 19.375 47.9582 8.66671 33.9998 8.66671C20.0415 8.66671 8.99984 19.375 8.99984 34.5C8.99984 44.25 17.1248 57.1667 33.9998 72.5834C50.8748 57.1667 58.9998 44.25 58.9998 34.5ZM33.9998 0.333374C51.4998 0.333374 67.3332 13.75 67.3332 34.5C67.3332 48.3334 56.2082 64.7084 33.9998 83.6667C11.7915 64.7084 0.666504 48.3334 0.666504 34.5C0.666504 13.75 16.4998 0.333374 33.9998 0.333374Z" fill="#9C9AC1"/>
</svg>
