<svg width="86" height="86" viewBox="0 0 86 86" fill="none" xmlns="http://www.w3.org/2000/svg">
<path d="M86 43C86 66.7482 66.7482 86 43 86C19.2518 86 0 66.7482 0 43C0 19.2518 19.2518 0 43 0C66.7482 0 86 19.2518 86 43Z" fill="#000"/>
<path d="M20.032 60.6667V19.4507H27.2L40.256 46.1387L53.248 19.4507H60.416V60.6667H53.504V30.7787L42.368 53.5627H38.144L26.944 30.7787V60.6667H20.032Z" fill="white"/>
<path d="M70 24C70 25.4728 68.8061 26.6667 67.3333 26.6667C65.8606 26.6667 64.6667 25.4728 64.6667 24C64.6667 22.5272 65.8606 21.3333 67.3333 21.3333C68.8061 21.3333 70 22.5272 70 24Z" fill="white"/>
<path d="M70 32C70 33.4728 68.8061 34.6667 67.3333 34.6667C65.8606 34.6667 64.6667 33.4728 64.6667 32C64.6667 30.5272 65.8606 29.3333 67.3333 29.3333C68.8061 29.3333 70 30.5272 70 32Z" fill="white"/>
</svg>
